<?xml version="1.0" encoding="utf-8"?>
<!-- Generator: Adobe Illustrator 26.4.1, SVG Export Plug-In . SVG Version: 6.00 Build 0)  -->
<svg version="1.1" id="Layer_1" xmlns="http://www.w3.org/2000/svg" xmlns:xlink="http://www.w3.org/1999/xlink" x="0px" y="0px"
	 viewBox="0 0 350 350" style="enable-background:new 0 0 350 350;" xml:space="preserve">
<g>
	<path d="M345.3,116.6l-80.2-80.2c-4.3-4.3-11.7-4.3-16,0l-22.2,22.2c-4.4,4.4-4.4,11.6,0,16l3.6,3.6C217,81.9,193.5,88.5,175,95.6
		c-18.5-7.1-42.2-13.8-55.6-17.4l3.6-3.6c2.1-2.1,3.3-5,3.3-8c0-3-1.2-5.9-3.3-8l-22.2-22.2c-4.3-4.3-11.7-4.3-16,0L4.7,116.6
		c-2.1,2.1-3.3,5-3.3,8s1.2,5.9,3.3,8l22.2,22.2c2.1,2.1,5,3.3,8,3.3c2.9,0,5.7-1.1,7.8-3.1c3,12.4,7.9,32.8,10.7,43.7
		c1.8,7.1,10.9,20.2,27,38.6c0.8,4.2,2.7,8.1,5.8,11.2c4.1,4.1,9.3,6.1,14.5,6.2c0,0.2,0,0.3,0,0.5c0.2,5.2,2.4,10.2,6.2,14
		c3.9,3.9,9.2,6.1,14.5,6.2c0.1,5.2,2.2,10.4,6.2,14.5c3.9,3.9,9.2,6.1,14.5,6.2c0.1,5.2,2.2,10.4,6.2,14.5c4,4,9.4,6.2,14.8,6.2
		c5.1,0,9.9-1.9,13.4-5.4l4.9-4.9c2.6,1.4,6.3,2.8,10.5,2.8c0.8,0,1.5,0,2.3-0.1c6.2-0.7,11.8-4.2,16.5-10.4
		c6.9-1.2,16.9-5.4,20.8-15.7c7.5-1.7,17.5-7,20.9-19.1c3.9-1.7,9.8-5.3,12.5-12.1c1.3-3.2,1.6-6.6,1.1-10.2
		c13.1-14.8,28.3-33.3,30.7-42.9c2.7-10.9,7.7-31.3,10.7-43.7c2.1,2,4.8,3.1,7.8,3.1c3,0,5.9-1.2,8-3.3l22.2-22.2
		c2.1-2.1,3.3-5,3.3-8C348.6,121.5,347.5,118.7,345.3,116.6L345.3,116.6z M34.9,146.2L13,124.9l79.6-80.2l22.2,21.6L34.9,146.2z
		 M52.4,145.3l57.4-57.4c8.4,2.2,30.2,8,49.6,14.6c-3.5,1.8-6.3,3.6-8.3,5.3c-6.9,6-12.9,16.2-19.7,28
		c-8.5,14.6-18.2,31.1-30.9,40.9c-13,10-8.3,19.2-6.5,21.8c1.7,2.4,4.1,4.4,7.1,6.1l-15.8,15.8c-0.8,0.8-1.4,1.6-2,2.5
		c-12.3-14.8-17.8-23.6-18.6-27C61.4,182.5,54.7,155,52.4,145.3L52.4,145.3z M94.4,240.2c-1.7-1.7-2.7-3.9-2.8-6.2
		c-0.1-2.1,0.6-4,2-5.4l19.9-19.9c6.2,1.1,13,1.3,19.6,0.4c0.4,2.4-0.1,4.9-1.8,6.6L106,241C103,244,97.8,243.6,94.4,240.2
		L94.4,240.2z M115.1,260.9c-1.7-1.7-2.7-3.9-2.8-6.2c-0.1-2.1,0.6-4,2-5.4l25.3-25.3h0c1.3-1.3,3.1-2,5.1-2c2.4,0,4.7,1,6.5,2.8
		c3.4,3.4,3.8,8.6,0.8,11.6l-25.3,25.3C123.9,264.5,118.4,264.1,115.1,260.9L115.1,260.9z M135.8,281.6c-3.4-3.4-3.8-8.6-0.8-11.6
		l25.3-25.3c1.3-1.3,3.1-2,5.1-2c2.4,0,4.7,1,6.5,2.8c1.7,1.7,2.7,3.9,2.8,6.2c0.1,2.1-0.6,4-2,5.4l-25.3,25.3
		C144.6,285.2,139.1,284.9,135.8,281.6L135.8,281.6z M168.1,303.1c-2.9,2.9-8.3,2.5-11.6-0.8c-3.4-3.4-3.8-8.6-0.8-11.6l25.3-25.3
		c1.3-1.3,3.1-2,5.1-2c2.4,0,4.8,1,6.5,2.8c3.4,3.4,3.8,8.6,0.8,11.6L168.1,303.1z M254,247.3c-1.8,4.7-8.1,6.4-8.1,6.4
		c-2.3,0.6-4,2.5-4.4,4.8c-1.9,12.2-13.7,13.3-15,13.4c-2.7,0.1-5,2.1-5.5,4.8c-1.8,9.8-13.5,10.6-14,10.6c-1.8,0.1-3.5,1.1-4.6,2.6
		c-3.1,4.6-6.4,7.1-9.7,7.6c-0.8,0.1-1.6,0-2.4-0.1l11.2-11.2c7.5-7.6,7.2-20.2-0.8-28.2c-3.9-3.9-9.3-5.9-14.5-6
		c0-5.2-2.1-10.6-6.2-14.7c-3.9-3.9-9.3-5.9-14.5-6c0-5.2-2.1-10.6-6.2-14.7c-3.9-3.9-9.2-5.9-14.5-6c0-1.4-0.1-2.7-0.4-4.1
		c2.9-1,5.6-2.2,8-3.7c8.5-5.2,19.6-18.4,26.5-30.8c6.9,4,19.2,8.9,36.1,6.4l35,54.4C252.8,236.9,255.7,242.9,254,247.3L254,247.3z
		 M285.3,195.8c-1,3.8-7.9,14.7-23.8,33.1c-0.5-0.8-0.9-1.7-1.5-2.5l-32.8-51c3.3-1.1,6.8-2.5,10.4-4.2l-5.1-10.6
		c-32.4,15.6-50.9-1-51.6-1.7c-1.4-1.3-3.3-1.9-5.2-1.5c-1.9,0.4-3.5,1.7-4.2,3.4c-5,11.5-17.1,27-25,31.9
		c-14.5,8.9-38.8,4.9-42.8-0.9c-1.1-1.7,2.8-4.9,4-5.8c14.5-11.2,24.8-28.8,33.9-44.3c6.1-10.4,11.9-20.3,17.4-25.1
		c9.5-8.3,52.5-21.4,81.3-28.8l57.5,57.5C295.3,155,288.6,182.5,285.3,195.8L285.3,195.8z M315.1,146.2l-79.9-79.3l21.6-22.2
		l80.2,79.6L315.1,146.2z"/>
	<path d="M324,123.7c0,4.5-3.7,8.2-8.2,8.2c-4.5,0-8.2-3.7-8.2-8.2c0-4.5,3.7-8.2,8.2-8.2C320.3,115.5,324,119.2,324,123.7"/>
	<path d="M42.4,123.7c0,4.5-3.7,8.2-8.2,8.2s-8.2-3.7-8.2-8.2s3.7-8.2,8.2-8.2S42.4,119.2,42.4,123.7"/>
</g>
</svg>
