<?xml version="1.0" encoding="utf-8"?>
<!-- Generator: Adobe Illustrator 26.4.1, SVG Export Plug-In . SVG Version: 6.00 Build 0)  -->
<svg version="1.1" id="Layer_1" xmlns="http://www.w3.org/2000/svg" xmlns:xlink="http://www.w3.org/1999/xlink" x="0px" y="0px"
	 viewBox="0 0 350 350" style="enable-background:new 0 0 350 350;" xml:space="preserve">
<style type="text/css">
	.st0{clip-path:url(#SVGID_00000154409688726121530530000002545349495754622899_);}
	.st1{fill:#FFFFFF;}
</style>
<g>
	<defs>
		<rect id="SVGID_1_" x="0" y="32.4" width="350" height="285.3"/>
	</defs>
	<use xlink:href="#SVGID_1_"  style="overflow:visible;fill:#FFFFFF;"/>
	<clipPath id="SVGID_00000080203696005087666980000011258523743833519030_">
		<use xlink:href="#SVGID_1_"  style="overflow:visible;"/>
	</clipPath>
	<g style="clip-path:url(#SVGID_00000080203696005087666980000011258523743833519030_);">
		<path class="st1" d="M350,66.1c0-18.3-14.9-33.3-33.3-33.3c-18.3,0-33.3,14.9-33.3,33.3c0,6.1,1.7,11.8,4.6,16.7l-42.8,62.9
			c-3.7-1.4-7.7-2.3-11.9-2.3c-12.3,0-23.1,6.7-28.8,16.7l-43-13.9c0.1-0.8,0.1-1.7,0.1-2.5c0-18.3-14.9-33.3-33.3-33.3
			c-18.3,0-33.3,14.9-33.3,33.3c0,5.6,1.4,11,3.9,15.6l-49.8,42c-4.7-2.6-10.2-4.1-15.9-4.1C14.9,197.4,0,212.3,0,230.6
			c0,15.3,10.4,28.2,24.5,32.1v45.7c0,4.8,3.9,8.8,8.8,8.8h283.5c4.8,0,8.8-3.9,8.8-8.8V98.2C339.6,94.3,350,81.4,350,66.1L350,66.1
			z M242,208.8c14.1-3.9,24.5-16.7,24.5-32.1c0-7.8-2.7-15-7.2-20.6l41.4-60.9c2.3,1.2,4.7,2.2,7.2,2.9v201.5H242L242,208.8z
			 M233.3,161c8.7,0,15.8,7.1,15.8,15.8c0,8.7-7.1,15.8-15.8,15.8c-8.7,0-15.8-7.1-15.8-15.8C217.5,168.1,224.6,161,233.3,161z
			 M200,177.2c0.2,15.1,10.5,27.8,24.5,31.7l0,90.8h-87.4V175.9c7.6-2.1,14.1-6.8,18.5-13.1L200,177.2z M66.5,230.6
			c0-6.2-1.7-12-4.7-17l49.2-41.5c2.6,1.6,5.5,2.9,8.5,3.7l0,123.8H42v-37C56.1,258.8,66.5,245.9,66.5,230.6L66.5,230.6z
			 M128.3,128.1c8.7,0,15.8,7.1,15.8,15.8c0,8.7-7.1,15.8-15.8,15.8c-8.7,0-15.8-7.1-15.8-15.8S119.7,128.1,128.3,128.1z
			 M17.5,230.6c0-8.7,7.1-15.8,15.8-15.8c8.7,0,15.8,7.1,15.8,15.8c0,8.7-7.1,15.8-15.8,15.8C24.6,246.4,17.5,239.3,17.5,230.6z
			 M316.7,81.9c-8.7,0-15.8-7.1-15.8-15.8c0-8.7,7.1-15.8,15.8-15.8c8.7,0,15.8,7.1,15.8,15.8C332.5,74.8,325.4,81.9,316.7,81.9z"/>
	</g>
</g>
</svg>
