<?xml version="1.0" encoding="utf-8"?>
<!-- Generator: Adobe Illustrator 26.4.1, SVG Export Plug-In . SVG Version: 6.00 Build 0)  -->
<svg version="1.1" id="Layer_1" xmlns="http://www.w3.org/2000/svg" xmlns:xlink="http://www.w3.org/1999/xlink" x="0px" y="0px"
	 viewBox="0 0 350 350" style="enable-background:new 0 0 350 350;" xml:space="preserve">
<style type="text/css">
	.st0{fill:#FFFFFF;stroke:#FFFFFF;stroke-width:2;stroke-miterlimit:10;}
</style>
<g>
	<path class="st0" d="M144.1,227.5c-18,0.1-35.3,6.9-48.5,19.1c-13.2,12.2-21.5,28.9-23,46.8c-0.1,1.5,0.4,3.1,1.4,4.2
		c1,1.1,2.5,1.8,4.1,1.8h132.1c1.5,0,3-0.6,4.1-1.8c1-1.1,1.6-2.7,1.4-4.2c-1.6-17.9-9.8-34.6-23.1-46.8
		C179.4,234.4,162.1,227.6,144.1,227.5L144.1,227.5z M84.4,288.3c3.5-18.8,15.6-34.8,32.6-43.3c17.1-8.5,37.2-8.5,54.3,0
		c17.1,8.5,29.2,24.6,32.6,43.3H84.4z"/>
	<path class="st0" d="M303.9,346.3h2.8c7.3,0,14.3-2.9,19.5-8.1c5.2-5.2,8.1-12.2,8.1-19.5V81.1c0-0.1,0-0.1,0-0.2h0
		c0-0.6-0.1-1.1-0.3-1.7L311,13c-0.8-2.2-2.8-3.7-5.2-3.7h0c-2.3,0-4.4,1.5-5.2,3.6l-23.9,66.3c-0.2,0.5-0.3,1.1-0.3,1.7
		c0,0.1,0,0.1,0,0.2v237.6c0,7.3,2.9,14.3,8.1,19.5C289.6,343.4,296.6,346.3,303.9,346.3L303.9,346.3z M306.7,335.2h-2.8v0
		c-3.4,0-6.8-1.1-9.6-3c-2.8-2-4.9-4.8-6.1-8h34c-1.1,3.2-3.3,6-6.1,8C313.5,334.2,310.1,335.2,306.7,335.2L306.7,335.2z
		 M323.3,284.1h-12.4V86.6h12.4V284.1z M305.6,31.4l2.9,8.2h-5.8L305.6,31.4z M298.7,50.6h13.6l8.7,25h-31.3L298.7,50.6z
		 M287.3,86.6h12.4v197.5h-12.4V86.6z M287.3,295.2h35.9v18h-35.9V295.2z"/>
	<path class="st0" d="M21.2,141.9H82c1.5,0,2.9-0.6,3.9-1.6c1-1,1.6-2.4,1.6-3.9v-105c0-5.9-2.3-11.5-6.5-15.6
		c-4.1-4.1-9.8-6.5-15.6-6.5H37.8c-5.9,0-11.5,2.3-15.6,6.5c-4.1,4.1-6.5,9.8-6.5,15.6v105c0,1.5,0.6,2.9,1.6,3.9
		C18.4,141.3,19.8,141.9,21.2,141.9L21.2,141.9z M26.7,31.4c0-2.9,1.2-5.7,3.2-7.8c2.1-2.1,4.9-3.2,7.8-3.2h27.6
		c2.9,0,5.7,1.2,7.8,3.2c2.1,2.1,3.2,4.9,3.2,7.8v5.5H26.7L26.7,31.4z M26.7,47.9h49.7v60.8H26.7V47.9z M26.7,119.8h49.7v11.1H26.7
		V119.8z"/>
	<path class="st0" d="M49.3,210.3c0.9,2.1,2.9,3.4,5.1,3.4h11.8c-24.2,21.9-38,53-38,85.6V338c0,1.5,0.6,2.9,1.6,3.9
		c1,1,2.4,1.6,3.9,1.6h221c1.5,0,2.9-0.6,3.9-1.6c1-1,1.6-2.4,1.6-3.9v-38.7c0-32.6-13.8-63.7-38-85.6h31.1c1.5,0,2.9-0.6,3.9-1.6
		c1-1,1.6-2.4,1.6-3.9V9.3c0-2.2-1.3-4.2-3.4-5.1c-2.1-0.9-4.4-0.4-6,1.2L50.5,204.2h0C48.9,205.8,48.4,208.2,49.3,210.3L49.3,210.3
		z M223.4,230.7c3.7,4.2,7,8.8,9.9,13.5l-13,7.5l5.5,9.6l12.8-7.4c2.4,5,4.5,10.2,6.1,15.5l-3.3,0.9l2.9,10.7l3-0.8
		c1,5.4,1.6,10.9,1.7,16.4h-13.7v11.1h13.8v24.9l-31.5,0v-9h-11.1l0,9h-23v-9h-11.1v9h-23.1v-9h-11.1v9h-23v-9h-11.1l0,9H81.2v-9
		H70.1l0,9H39.2v-24.9H53l0-11.1H39.3c0.1-5.5,0.7-11,1.7-16.4l3,0.8l2.9-10.7l-3.3-0.9c1.6-5.3,3.6-10.5,6.1-15.5l12.8,7.4l5.5-9.6
		l-13-7.5c2.9-4.8,6.3-9.3,9.9-13.5l3.1,3l7.8-7.8l-3.2-3.2h0c4.1-3.9,8.5-7.4,13.2-10.6l8,13.8l9.6-5.5l-8-13.9l0,0
		c5-2.6,10.3-4.9,15.7-6.7l1.3,5l10.7-2.9l-1.4-5.1c5.6-1.2,11.3-1.9,17-2.2v16.3h11.1v-16.3c5.7,0.3,11.4,1,17,2.2l-1.4,5.1
		l10.7,2.9l1.3-5v0c5.4,1.8,10.7,4,15.7,6.7l-8,13.9l9.6,5.5l8-13.8h0c4.7,3.2,9.1,6.7,13.2,10.6l-3.2,3.2l7.8,7.8L223.4,230.7z
		 M93.4,177l7.5,7.5l7.8-7.8l-7.5-7.5l7.8-7.8l4.9,4.9l7.8-7.8l-4.9-4.9l7.8-7.8l7.5,7.5l7.8-7.8l-7.5-7.5l7.8-7.8l4.9,4.9l7.8-7.8
		l-4.9-4.9l7.8-7.8l7.5,7.5l7.8-7.8l-7.5-7.5l7.8-7.8l4.9,4.9l7.8-7.8l-4.9-4.9l7.8-7.8l7.5,7.5l7.8-7.8l-7.5-7.5l7.8-7.8l4.9,4.9
		l7.8-7.8l-4.9-4.9l7.8-7.8l7.5,7.5l7.8-7.8l-7.5-7.5l21.5-21.5v180h-39.6c-19.3-12.9-42.1-19.6-65.3-19.3
		c-23.2,0.3-45.8,7.5-64.8,20.8v-1.4H67.7L93.4,177z"/>
	<path class="st0" d="M161.1,169.5h48c1.5,0,2.9-0.6,3.9-1.6c1-1,1.6-2.4,1.6-3.9v-48c0-2.2-1.3-4.2-3.4-5.1s-4.4-0.4-6,1.2l-48,48
		c-1.6,1.6-2.1,4-1.2,6C156.8,168.1,158.8,169.5,161.1,169.5z M203.5,129.3v29.1h-29.1L203.5,129.3z"/>
</g>
</svg>
