<?xml version="1.0" encoding="utf-8"?>
<!-- Generator: Adobe Illustrator 26.4.1, SVG Export Plug-In . SVG Version: 6.00 Build 0)  -->
<svg version="1.1" id="Layer_1" xmlns="http://www.w3.org/2000/svg" xmlns:xlink="http://www.w3.org/1999/xlink" x="0px" y="0px"
	 viewBox="0 0 350 350" style="enable-background:new 0 0 350 350;" xml:space="preserve">
<style type="text/css">
	.st0{fill:#FFFFFF;}
</style>
<path class="st0" d="M321.5,295c-0.2-0.1-16.7-7.2-13.7-19.8c3.2-13.3-1.8-35-15.7-46.8c-7.8-6.7-21.4-12.9-42.2-5.6l-25-25
	c-0.1-0.3-0.2-0.7-0.4-1c-2.9-5.2-5.9-10.4-8.9-15.4l90.1-90.1c4.2-4.2,6.5-9.8,6.5-15.7c0-5.9-2.3-11.5-6.5-15.7l-22.2-22.2
	c-8.4-8.4-23.1-8.4-31.4,0l-24.3,24.4c0,0,0,0,0,0c0,0,0,0,0,0l-57.3,57.4C142.5,87.6,113,64.1,80.1,47.7
	c-22.8-11.3-31.5-8.7-34.2-7c-0.8,0.5-1.5,1.2-2,2C42.3,45.3,39.6,54,51,76.8c15.6,31.3,40.4,62.4,71.8,90.2l-78.6,78.6
	c-0.5,0.5-0.9,1.1-1.2,1.8c-0.1,0.2-0.1,0.3-0.2,0.5c0,0.1-0.1,0.3-0.2,0.4l-17.5,62.7c-0.6,2.1,0,4.3,1.5,5.9
	c1.1,1.1,2.7,1.8,4.3,1.8c0.5,0,1.1-0.1,1.6-0.2l62.7-17.6c0.1,0,0.3-0.1,0.4-0.2c0.2-0.1,0.3-0.1,0.5-0.2c0.6-0.3,1.3-0.7,1.8-1.2
	l86.9-86.9c5.1,3.1,9,5.4,14.7,8.5l26.7,26.7c-1,7.1-1.2,23.1,12.6,43c11.4,16.6,30.2,23.8,49,23.8c12.2,0,24.4-3,34.4-8.6
	c2-1.1,3.2-3.3,3.1-5.6C325,297.9,323.6,295.9,321.5,295L321.5,295z M232.6,237.1L211.5,216l7.2-7.2l21.1,21.1L232.6,237.1z
	 M93.6,286.5l-14.1-14.1L254.5,97.4l14.1,14.1L93.6,286.5z M56.9,249.8l175-174.9L246,88.9L71,263.9L56.9,249.8z M260.5,46.2
	c3.9-3.8,10.6-3.8,14.4,0l22.2,22.2c1.9,1.9,3,4.5,3,7.2s-1.1,5.3-3,7.2L277,103l-18.3-18.3h0c0,0,0,0,0,0l-18.3-18.3L260.5,46.2z
	 M61.8,71.4c-5.2-10.5-6.8-16.8-7.2-20.1c3.4,0.4,9.6,1.9,20.1,7.2c31.7,15.8,60.2,38.6,87,69.5l-30.4,30.4
	C100.8,131.5,76.8,101.5,61.8,71.4L61.8,71.4z M51.5,261.4L82,291.9l-42.5,11.9L51.5,261.4z M206.8,190.3c1.7,2.8,3.4,5.6,5,8.5
	l-9.8,9.8c-3-1.7-5.6-3.2-8.5-4.9L206.8,190.3z M248.6,283.8c-12.4-18-11.2-31.2-10.5-35.1l13.6-13.6c13.4-5.3,24.4-4.5,32.5,2.5
	c10.8,9.3,13.8,26.5,11.8,34.8c-2.9,11.9,3.2,21.1,10.2,27.2C286.3,306,261.4,302.4,248.6,283.8L248.6,283.8z"/>
</svg>
