<?xml version="1.0" encoding="utf-8"?>
<!-- Generator: Adobe Illustrator 26.4.1, SVG Export Plug-In . SVG Version: 6.00 Build 0)  -->
<svg version="1.1" id="Layer_1" xmlns="http://www.w3.org/2000/svg" xmlns:xlink="http://www.w3.org/1999/xlink" x="0px" y="0px"
	 viewBox="0 0 350 350" style="enable-background:new 0 0 350 350;" xml:space="preserve">
<path d="M336.6,307.4c-0.2-0.1-18.5-8-15.1-21.8c3.6-14.7-2-38.6-17.3-51.7c-8.6-7.4-23.6-14.2-46.6-6.1l-27.6-27.6
	c-0.1-0.4-0.2-0.7-0.4-1.1c-3.2-5.8-6.5-11.4-9.9-17l99.4-99.4c4.6-4.6,7.2-10.8,7.2-17.4c0-6.6-2.6-12.7-7.2-17.3l-24.5-24.5
	c-9.3-9.3-25.4-9.3-34.7,0l-26.9,26.9c0,0,0,0,0,0c0,0,0,0,0,0l-63.3,63.3c-30.6-35.1-63.2-61.1-99.5-79.2
	C45.1,22,35.5,24.9,32.5,26.7c-0.9,0.6-1.6,1.3-2.2,2.2c-1.8,3-4.7,12.6,7.8,37.7c17.2,34.6,44.6,68.8,79.2,99.5l-86.7,86.7
	c-0.6,0.6-1,1.2-1.3,2c-0.1,0.2-0.2,0.3-0.2,0.5c-0.1,0.2-0.1,0.3-0.2,0.5L9.6,325c-0.6,2.3,0,4.8,1.7,6.5c1.3,1.3,3,2,4.7,2
	c0.6,0,1.2-0.1,1.8-0.2l69.2-19.4c0.2-0.1,0.3-0.1,0.5-0.2c0.2-0.1,0.3-0.1,0.5-0.2c0.7-0.3,1.4-0.7,1.9-1.3l95.9-95.9
	c5.6,3.4,10,5.9,16.2,9.4l29.5,29.5c-1.1,7.8-1.3,25.5,13.9,47.5c12.6,18.3,33.4,26.2,54.1,26.2c13.5,0,26.9-3.4,37.9-9.5
	c2.2-1.2,3.6-3.6,3.4-6.2C340.5,310.7,339,308.4,336.6,307.4L336.6,307.4z M238.6,243.5l-23.3-23.3l8-8l23.3,23.3L238.6,243.5z
	 M85.2,298l-15.5-15.5l193-193l15.5,15.5L85.2,298z M44.7,257.6l193.1-193L253.3,80l-193,193L44.7,257.6z M269.4,32.9
	c4.3-4.2,11.6-4.2,15.9,0l24.5,24.5c2.1,2.1,3.3,4.9,3.3,7.9c0,3-1.2,5.8-3.3,8l-22.2,22.2l-20.2-20.2h0c0,0,0,0,0,0l-20.2-20.2
	L269.4,32.9z M50,60.7c-5.8-11.6-7.5-18.5-7.9-22.2c3.7,0.4,10.6,2.1,22.2,7.9c35,17.4,66.4,42.6,96,76.7l-33.6,33.6
	C93.1,127,66.6,93.9,50,60.7L50,60.7z M38.7,270.3L72.4,304l-46.9,13.1L38.7,270.3z M210.1,191.8c1.9,3.1,3.7,6.1,5.5,9.3L204.8,212
	c-3.3-1.9-6.2-3.6-9.4-5.5L210.1,191.8z M256.2,295c-13.7-19.9-12.4-34.4-11.5-38.7l15.1-15.1c14.8-5.8,26.9-4.9,35.9,2.8
	c11.9,10.2,15.3,29.2,13,38.4c-3.2,13.1,3.5,23.3,11.3,30C297.8,319.5,270.3,315.5,256.2,295L256.2,295z"/>
</svg>
