<?xml version="1.0" encoding="utf-8"?>
<!-- Generator: Adobe Illustrator 26.4.1, SVG Export Plug-In . SVG Version: 6.00 Build 0)  -->
<svg version="1.1" id="Layer_1" xmlns="http://www.w3.org/2000/svg" xmlns:xlink="http://www.w3.org/1999/xlink" x="0px" y="0px"
	 viewBox="0 0 350 350" style="enable-background:new 0 0 350 350;" xml:space="preserve">
<style type="text/css">
	.st0{fill:#FFFFFF;stroke:#FFFFFF;stroke-width:2;stroke-miterlimit:10;}
</style>
<g>
	<path class="st0" d="M146.9,222.8c-16.4,0.1-32.1,6.3-44.2,17.4c-12,11.1-19.5,26.3-21,42.6c-0.1,1.4,0.4,2.8,1.3,3.8
		c1,1,2.3,1.6,3.7,1.6H207c1.4,0,2.8-0.6,3.7-1.6c1-1,1.4-2.4,1.3-3.8c-1.4-16.3-8.9-31.5-21-42.6C179,229,163.3,222.8,146.9,222.8
		L146.9,222.8z M92.5,278.1c3.2-17.1,14.2-31.7,29.7-39.4c15.5-7.8,33.8-7.8,49.4,0c15.5,7.8,26.5,22.4,29.7,39.4H92.5z"/>
	<path class="st0" d="M292.3,330.9h2.5c6.7,0,13.1-2.7,17.8-7.4c4.7-4.7,7.4-11.1,7.4-17.8V89.5c0-0.1,0-0.1,0-0.2h0
		c0-0.5-0.1-1-0.2-1.5l-21-60.3c-0.7-2-2.6-3.4-4.7-3.4h0c-2.1,0-4,1.3-4.7,3.3l-21.8,60.3c-0.2,0.5-0.3,1-0.3,1.5
		c0,0.1,0,0.1,0,0.2v216.2c0,6.7,2.7,13.1,7.4,17.8C279.3,328.2,285.7,330.9,292.3,330.9L292.3,330.9z M294.8,320.8h-2.5v0
		c-3.1,0-6.2-1-8.7-2.8c-2.5-1.8-4.5-4.3-5.5-7.3h31c-1,2.9-3,5.5-5.5,7.3C301,319.8,298,320.8,294.8,320.8L294.8,320.8z
		 M309.9,274.3h-11.3V94.6h11.3V274.3z M293.9,44.3l2.6,7.4h-5.3L293.9,44.3z M287.6,61.8H300l7.9,22.7h-28.5L287.6,61.8z
		 M277.2,94.5h11.3v179.8h-11.3V94.5z M277.2,284.4h32.7v16.3h-32.7V284.4z"/>
	<path class="st0" d="M35.1,144.8h55.3c1.3,0,2.6-0.5,3.6-1.5c0.9-0.9,1.5-2.2,1.5-3.6V44.3c0-5.3-2.1-10.4-5.9-14.2
		c-3.8-3.8-8.9-5.9-14.2-5.9H50.1c-5.3,0-10.4,2.1-14.2,5.9c-3.8,3.8-5.9,8.9-5.9,14.2v95.5c0,1.3,0.5,2.6,1.5,3.6
		C32.4,144.3,33.7,144.8,35.1,144.8L35.1,144.8z M40.1,44.3c0-2.7,1.1-5.2,2.9-7.1c1.9-1.9,4.4-2.9,7.1-2.9h25.1
		c2.7,0,5.2,1.1,7.1,2.9c1.9,1.9,2.9,4.4,2.9,7.1v5H40.1L40.1,44.3z M40.1,59.4h45.3v55.3H40.1V59.4z M40.1,124.7h45.3v10.1H40.1
		V124.7z"/>
	<path class="st0" d="M60.6,207.1c0.8,1.9,2.6,3.1,4.6,3.1h10.7c-22,19.9-34.6,48.2-34.6,77.9v35.2c0,1.3,0.5,2.6,1.5,3.6
		c0.9,0.9,2.2,1.5,3.6,1.5h201.1c1.3,0,2.6-0.5,3.6-1.5c0.9-0.9,1.5-2.2,1.5-3.6v-35.2c0-29.7-12.6-58-34.6-77.9h28.3
		c1.3,0,2.6-0.5,3.6-1.5c0.9-0.9,1.5-2.2,1.5-3.6v-181c0-2-1.2-3.9-3.1-4.6c-1.9-0.8-4-0.3-5.5,1.1l-181,181h0
		C60.2,203,59.8,205.2,60.6,207.1L60.6,207.1z M219,225.7c3.3,3.9,6.4,8,9,12.3l-11.8,6.8l5,8.7l11.6-6.7c2.2,4.5,4.1,9.3,5.5,14.1
		l-3,0.8l2.6,9.7l2.7-0.7c0.9,4.9,1.4,9.9,1.5,14.9h-12.4v10.1h12.6v22.6l-28.7,0v-8.2h-10.1l0,8.2h-21v-8.2h-10.1v8.2h-21v-8.2
		h-10.1v8.2h-21v-8.2h-10.1l0,8.2h-21v-8.2H79.5l0,8.2H51.4v-22.6H64l0-10.1H51.5c0.1-5,0.6-10,1.5-14.9l2.7,0.7l2.6-9.7l-3-0.8
		c1.5-4.8,3.3-9.6,5.5-14.1l11.6,6.7l5-8.7L65.7,238c2.7-4.3,5.7-8.5,9.1-12.3l2.8,2.8l7.1-7.1l-2.9-2.9h0c3.7-3.5,7.8-6.8,12-9.7
		l7.3,12.6l8.7-5l-7.3-12.7l0,0c4.6-2.4,9.4-4.4,14.3-6.1l1.2,4.5l9.7-2.6l-1.2-4.6c5.1-1.1,10.2-1.8,15.4-2v14.8h10.1v-14.8
		c5.2,0.2,10.4,0.9,15.4,2l-1.2,4.6l9.7,2.6l1.2-4.5v0c4.9,1.6,9.7,3.7,14.3,6.1l-7.3,12.7l8.7,5l7.3-12.6h0c4.3,2.9,8.3,6.1,12,9.7
		l-2.9,2.9l7.1,7.1L219,225.7z M100.7,176.8l6.8,6.8l7.1-7.1l-6.8-6.8l7.1-7.1l4.4,4.4l7.1-7.1l-4.4-4.4l7.1-7.1l6.8,6.8l7.1-7.1
		l-6.8-6.8l7.1-7.1l4.4,4.4l7.1-7.1l-4.4-4.4l7.1-7.1l6.8,6.8l7.1-7.1l-6.8-6.8l7.1-7.1l4.4,4.4l7.1-7.1l-4.4-4.4l7.1-7.1l6.8,6.8
		l7.1-7.1l-6.8-6.8l7.1-7.1l4.4,4.4l7.1-7.1l-4.4-4.4l7.1-7.1l6.8,6.8l7.1-7.1l-6.8-6.8l19.6-19.6v163.9h-36.1
		c-17.6-11.7-38.3-17.8-59.4-17.6c-21.1,0.2-41.7,6.8-59,18.9v-1.3h-9.4L100.7,176.8z"/>
	<path class="st0" d="M162.3,170H206c1.3,0,2.6-0.5,3.6-1.5c0.9-0.9,1.5-2.2,1.5-3.6v-43.7c0-2-1.2-3.9-3.1-4.6
		c-1.9-0.8-4-0.3-5.5,1.1l-43.7,43.7c-1.4,1.4-1.9,3.6-1.1,5.5C158.5,168.7,160.3,170,162.3,170z M201,133.4v26.5h-26.5L201,133.4z"
		/>
</g>
</svg>
