<?xml version="1.0" encoding="utf-8"?>
<!-- Generator: Adobe Illustrator 26.4.1, SVG Export Plug-In . SVG Version: 6.00 Build 0)  -->
<svg version="1.1" id="Layer_1" xmlns="http://www.w3.org/2000/svg" xmlns:xlink="http://www.w3.org/1999/xlink" x="0px" y="0px"
	 viewBox="0 0 350 350" style="enable-background:new 0 0 350 350;" xml:space="preserve">
<style type="text/css">
	.st0{fill:#FFFFFF;stroke:#FFFFFF;stroke-width:2;stroke-miterlimit:10;}
	.st1{clip-path:url(#SVGID_00000170258734846970582080000008418749036178178697_);}
	.st2{fill:#FFFFFF;}
</style>
<g>
	<path class="st0" d="M601,181.9c-14.9,0.1-29.2,5.7-40.2,15.8c-11,10.1-17.8,23.9-19.1,38.7c-0.1,1.3,0.3,2.5,1.2,3.5
		c0.9,0.9,2.1,1.5,3.4,1.5h109.4c1.3,0,2.5-0.5,3.4-1.5c0.9-0.9,1.3-2.2,1.2-3.5c-1.3-14.8-8.1-28.7-19.1-38.7
		C630.3,187.6,615.9,181.9,601,181.9L601,181.9z M551.5,232.2c2.9-15.5,12.9-28.8,27-35.9c14.1-7.1,30.8-7.1,44.9,0
		c14.1,7.1,24.2,20.4,27,35.9H551.5z"/>
	<path class="st0" d="M733.4,280.2h2.3c6.1,0,11.9-2.4,16.2-6.7c4.3-4.3,6.7-10.1,6.7-16.2V60.6c0-0.1,0-0.1,0-0.1h0
		c0-0.5-0.1-0.9-0.2-1.4L739.2,4.2c-0.6-1.8-2.4-3.1-4.3-3.1h0c-1.9,0-3.6,1.2-4.3,3l-19.8,54.9c-0.2,0.5-0.2,0.9-0.2,1.4
		c0,0.1,0,0.1,0,0.2v196.8c0,6.1,2.4,11.9,6.7,16.2C721.5,277.8,727.3,280.2,733.4,280.2L733.4,280.2z M735.7,271.1h-2.3v0
		c-2.8,0-5.6-0.9-7.9-2.5c-2.3-1.6-4.1-4-5-6.6h28.2c-1,2.7-2.7,5-5,6.6C741.3,270.2,738.5,271.1,735.7,271.1L735.7,271.1z
		 M749.4,228.8h-10.3V65.2h10.3V228.8z M734.8,19.4l2.4,6.8h-4.8L734.8,19.4z M729.1,35.3h11.3l7.2,20.7h-25.9L729.1,35.3z
		 M719.6,65.2h10.3v163.6h-10.3V65.2z M719.6,237.9h29.7v14.9h-29.7V237.9z"/>
	<path class="st0" d="M499.2,110.9h50.3c1.2,0,2.4-0.5,3.2-1.3c0.9-0.9,1.3-2,1.3-3.2V19.4c0-4.9-1.9-9.5-5.4-12.9
		c-3.4-3.4-8.1-5.4-12.9-5.4H513c-4.9,0-9.5,1.9-12.9,5.4c-3.4,3.4-5.4,8.1-5.4,12.9v86.9c0,1.2,0.5,2.4,1.3,3.2
		C496.9,110.5,498,110.9,499.2,110.9L499.2,110.9z M503.8,19.4c0-2.4,1-4.8,2.7-6.5c1.7-1.7,4-2.7,6.5-2.7h22.9c2.4,0,4.8,1,6.5,2.7
		c1.7,1.7,2.7,4,2.7,6.5V24h-41.2L503.8,19.4z M503.8,33.2H545v50.3h-41.2V33.2z M503.8,92.6H545v9.2h-41.2V92.6z"/>
	<path class="st0" d="M522.5,167.6c0.7,1.7,2.4,2.8,4.2,2.8h9.7c-20,18.1-31.5,43.9-31.5,70.9v32c0,1.2,0.5,2.4,1.3,3.2
		c0.9,0.9,2,1.3,3.2,1.3h183c1.2,0,2.4-0.5,3.2-1.3c0.9-0.9,1.3-2,1.3-3.2v-32c0-27-11.5-52.8-31.5-70.9h25.8c1.2,0,2.4-0.5,3.2-1.3
		c0.9-0.9,1.3-2,1.3-3.2V1.1c0-1.9-1.1-3.5-2.8-4.2c-1.7-0.7-3.7-0.3-5,1L523.5,162.6h0C522.1,163.9,521.8,165.9,522.5,167.6
		L522.5,167.6z M666.6,184.5c3,3.5,5.8,7.3,8.2,11.2l-10.8,6.2l4.6,7.9l10.6-6.1c2,4.1,3.7,8.4,5,12.8l-2.7,0.7l2.4,8.8l2.5-0.7
		c0.8,4.5,1.3,9,1.4,13.6h-11.3v9.2H688v20.6l-26.1,0v-7.4h-9.2l0,7.4h-19.1v-7.4h-9.2v7.4h-19.1v-7.4h-9.2v7.4h-19.1v-7.4H568
		l0,7.4h-19.1v-7.4h-9.2l0,7.4h-25.6v-20.6h11.4l0-9.2h-11.3c0.1-4.6,0.6-9.1,1.4-13.6l2.5,0.7l2.4-8.8l-2.7-0.7
		c1.3-4.4,3-8.7,5-12.8l10.6,6.1l4.6-7.9l-10.8-6.2c2.4-4,5.2-7.7,8.2-11.2l2.5,2.5l6.5-6.5l-2.6-2.6h0c3.4-3.2,7.1-6.2,10.9-8.8
		l6.6,11.4l7.9-4.6l-6.6-11.5l0,0c4.2-2.2,8.5-4,13-5.5l1.1,4.1l8.8-2.4l-1.1-4.2c4.6-1,9.3-1.6,14-1.8v13.5h9.2v-13.5
		c4.7,0.2,9.4,0.8,14,1.8l-1.1,4.2l8.8,2.4l1.1-4.1v0c4.5,1.5,8.8,3.3,13,5.5l-6.6,11.5l7.9,4.6l6.6-11.4h0c3.9,2.6,7.6,5.6,11,8.8
		l-2.6,2.6l6.5,6.5L666.6,184.5z M559,140l6.2,6.2l6.5-6.5l-6.2-6.2l6.5-6.5l4,4l6.5-6.5l-4-4l6.5-6.5l6.2,6.2l6.5-6.5l-6.2-6.2
		l6.5-6.5l4,4l6.5-6.5l-4-4l6.5-6.5l6.2,6.2l6.5-6.5l-6.2-6.2l6.5-6.5l4,4l6.5-6.5l-4-4l6.5-6.5l6.2,6.2l6.5-6.5l-6.2-6.2l6.5-6.5
		l4,4l6.5-6.5l-4-4l6.5-6.5l6.2,6.2l6.5-6.5L669,30l17.8-17.8v149.1H654c-16-10.6-34.8-16.2-54-16c-19.2,0.2-37.9,6.2-53.7,17.2
		v-1.2h-8.6L559,140z"/>
	<path class="st0" d="M615.1,133.8h39.8c1.2,0,2.4-0.5,3.2-1.3c0.9-0.9,1.3-2,1.3-3.2V89.5c0-1.9-1.1-3.5-2.8-4.2s-3.7-0.3-5,1
		L611.8,126c-1.3,1.3-1.7,3.3-1,5C611.5,132.7,613.2,133.8,615.1,133.8z M650.2,100.5v24.1h-24.1L650.2,100.5z"/>
</g>
<g>
	<defs>
		<rect id="SVGID_1_" x="4" y="38.7" width="342" height="272.6"/>
	</defs>
	<use xlink:href="#SVGID_1_"  style="overflow:visible;fill:#FFFFFF;"/>
	<clipPath id="SVGID_00000126304731689268482040000008769446505730046644_">
		<use xlink:href="#SVGID_1_"  style="overflow:visible;"/>
	</clipPath>
	<g style="clip-path:url(#SVGID_00000126304731689268482040000008769446505730046644_);">
		<path class="st2" d="M346,71c0-17.5-14.6-31.8-32.5-31.8C295.6,39.2,281,53.4,281,71c0,5.8,1.6,11.3,4.5,16l-41.8,60.1
			c-3.6-1.4-7.6-2.2-11.7-2.2c-12,0-22.5,6.4-28.2,16l-42-13.3c0.1-0.8,0.1-1.6,0.1-2.4c0-17.5-14.6-31.8-32.5-31.8
			c-17.9,0-32.5,14.3-32.5,31.8c0,5.4,1.4,10.5,3.8,14.9l-48.7,40.1c-4.6-2.5-9.9-3.9-15.6-3.9C18.6,196.4,4,210.6,4,228.1
			c0,14.6,10.2,27,24,30.6v43.7c0,4.6,3.8,8.4,8.6,8.4h277c4.7,0,8.6-3.7,8.6-8.4V101.6C335.8,97.9,346,85.6,346,71L346,71z
			 M240.5,207.3c13.8-3.7,24-16,24-30.6c0-7.4-2.7-14.3-7.1-19.7l40.4-58.2c2.2,1.2,4.6,2.1,7.1,2.8v192.5h-64.4L240.5,207.3z
			 M232,161.6c8.5,0,15.4,6.8,15.4,15.1s-6.9,15.1-15.4,15.1c-8.5,0-15.4-6.8-15.4-15.1C216.5,168.4,223.5,161.6,232,161.6z
			 M199.5,177.1c0.2,14.5,10.3,26.6,23.9,30.2l0,86.8H138V175.9c7.4-2,13.8-6.5,18.1-12.5L199.5,177.1z M69,228.1
			c0-5.9-1.7-11.4-4.6-16.2l48.1-39.6c2.6,1.5,5.4,2.7,8.4,3.5l0,118.3H45.1v-35.3C58.8,255.1,69,242.8,69,228.1L69,228.1z
			 M129.4,130.2c8.5,0,15.4,6.8,15.4,15.1c0,8.3-6.9,15.1-15.4,15.1c-8.5,0-15.4-6.8-15.4-15.1C114,136.9,120.9,130.2,129.4,130.2z
			 M21.1,228.1c0-8.3,6.9-15.1,15.4-15.1c8.5,0,15.4,6.8,15.4,15.1c0,8.3-6.9,15.1-15.4,15.1C28,243.2,21.1,236.4,21.1,228.1z
			 M313.5,86c-8.5,0-15.4-6.8-15.4-15.1c0-8.3,6.9-15.1,15.4-15.1c8.5,0,15.4,6.8,15.4,15.1C328.9,79.3,322,86,313.5,86z"/>
	</g>
</g>
</svg>
