<?xml version="1.0" encoding="utf-8"?>
<!-- Generator: Adobe Illustrator 26.4.1, SVG Export Plug-In . SVG Version: 6.00 Build 0)  -->
<svg version="1.1" id="Layer_1" xmlns="http://www.w3.org/2000/svg" xmlns:xlink="http://www.w3.org/1999/xlink" x="0px" y="0px"
	 viewBox="0 0 350 350" style="enable-background:new 0 0 350 350;" xml:space="preserve">
<style type="text/css">
	.st0{fill:#FFFFFF;stroke:#FFFFFF;stroke-width:2;stroke-miterlimit:10;}
</style>
<g>
	<path class="st0" d="M149.4,218.5c-14.9,0.1-29.2,5.7-40.2,15.8c-11,10.1-17.8,23.9-19.1,38.7c-0.1,1.3,0.3,2.5,1.2,3.5
		c0.9,0.9,2.1,1.5,3.4,1.5h109.4c1.3,0,2.5-0.5,3.4-1.5c0.9-0.9,1.3-2.2,1.2-3.5c-1.3-14.8-8.1-28.7-19.1-38.7
		C178.7,224.2,164.3,218.5,149.4,218.5L149.4,218.5z M99.9,268.8c2.9-15.5,12.9-28.8,27-35.9c14.1-7.1,30.8-7.1,44.9,0
		c14.1,7.1,24.2,20.4,27,35.9H99.9z"/>
	<path class="st0" d="M281.8,316.9h2.3c6.1,0,11.9-2.4,16.2-6.7c4.3-4.3,6.7-10.1,6.7-16.2V97.2c0-0.1,0-0.1,0-0.1h0
		c0-0.5-0.1-0.9-0.2-1.4l-19.1-54.9c-0.6-1.8-2.4-3.1-4.3-3.1h0c-1.9,0-3.6,1.2-4.3,3l-19.8,54.9c-0.2,0.5-0.2,0.9-0.2,1.4
		c0,0.1,0,0.1,0,0.2V294c0,6.1,2.4,11.9,6.7,16.2C269.9,314.4,275.7,316.8,281.8,316.9L281.8,316.9z M284.1,307.7h-2.3v0
		c-2.8,0-5.6-0.9-7.9-2.5c-2.3-1.6-4.1-4-5-6.6H297c-1,2.7-2.7,5-5,6.6C289.7,306.8,286.9,307.7,284.1,307.7L284.1,307.7z
		 M297.8,265.4h-10.3V101.8h10.3V265.4z M283.2,56l2.4,6.8h-4.8L283.2,56z M277.5,71.9h11.3l7.2,20.7H270L277.5,71.9z M268,101.8
		h10.3v163.6H268V101.8z M268,274.5h29.7v14.9H268V274.5z"/>
	<path class="st0" d="M47.6,147.5H98c1.2,0,2.4-0.5,3.2-1.3c0.9-0.9,1.3-2,1.3-3.2V56c0-4.9-1.9-9.5-5.4-12.9
		c-3.4-3.4-8.1-5.4-12.9-5.4H61.4c-4.9,0-9.5,1.9-12.9,5.4c-3.4,3.4-5.4,8.1-5.4,12.9V143c0,1.2,0.5,2.4,1.3,3.2
		C45.3,147.1,46.4,147.5,47.6,147.5L47.6,147.5z M52.2,56c0-2.4,1-4.8,2.7-6.5c1.7-1.7,4-2.7,6.5-2.7h22.9c2.4,0,4.8,1,6.5,2.7
		c1.7,1.7,2.7,4,2.7,6.5v4.6H52.2L52.2,56z M52.2,69.8h41.2v50.3H52.2V69.8z M52.2,129.2h41.2v9.2H52.2V129.2z"/>
	<path class="st0" d="M70.9,204.2c0.7,1.7,2.4,2.8,4.2,2.8h9.7c-20,18.1-31.5,43.9-31.5,70.9v32c0,1.2,0.5,2.4,1.3,3.2
		c0.9,0.9,2,1.3,3.2,1.3h183c1.2,0,2.4-0.5,3.2-1.3c0.9-0.9,1.3-2,1.3-3.2v-32c0-27-11.5-52.8-31.5-70.9h25.8c1.2,0,2.4-0.5,3.2-1.3
		c0.9-0.9,1.3-2,1.3-3.2V37.7c0-1.9-1.1-3.5-2.8-4.2c-1.7-0.7-3.7-0.3-5,1L71.9,199.2h0C70.5,200.5,70.2,202.5,70.9,204.2
		L70.9,204.2z M215,221.1c3,3.5,5.8,7.3,8.2,11.2l-10.8,6.2l4.6,7.9l10.6-6.1c2,4.1,3.7,8.4,5,12.8l-2.7,0.7l2.4,8.8l2.5-0.7
		c0.8,4.5,1.3,9,1.4,13.6h-11.3v9.2h11.4v20.6l-26.1,0V298h-9.2l0,7.4H182V298h-9.2v7.4h-19.1V298h-9.2v7.4h-19.1V298h-9.2l0,7.4
		H97.3V298h-9.2l0,7.4H62.5v-20.6h11.4l0-9.2H62.6c0.1-4.6,0.6-9.1,1.4-13.6l2.5,0.7l2.4-8.8l-2.7-0.7c1.3-4.4,3-8.7,5-12.8
		l10.6,6.1l4.6-7.9l-10.8-6.2c2.4-4,5.2-7.7,8.2-11.2l2.5,2.5l6.5-6.5l-2.6-2.6h0c3.4-3.2,7.1-6.2,10.9-8.8l6.6,11.4l7.9-4.6
		l-6.6-11.5l0,0c4.2-2.2,8.5-4,13-5.5l1.1,4.1l8.8-2.4l-1.1-4.2c4.6-1,9.3-1.6,14-1.8v13.5h9.2v-13.5c4.7,0.2,9.4,0.8,14,1.8
		l-1.1,4.2l8.8,2.4l1.1-4.1v0c4.5,1.5,8.8,3.3,13,5.5l-6.6,11.5l7.9,4.6l6.6-11.4h0c3.9,2.6,7.6,5.6,11,8.8l-2.6,2.6l6.5,6.5
		L215,221.1z M107.4,176.6l6.2,6.2l6.5-6.5l-6.2-6.2l6.5-6.5l4,4l6.5-6.5l-4-4l6.5-6.5l6.2,6.2l6.5-6.5l-6.2-6.2l6.5-6.5l4,4
		l6.5-6.5l-4-4l6.5-6.5l6.2,6.2l6.5-6.5l-6.2-6.2l6.5-6.5l4,4l6.5-6.5l-4-4l6.5-6.5l6.2,6.2l6.5-6.5l-6.2-6.2L198,86l4,4l6.5-6.5
		l-4-4l6.5-6.5l6.2,6.2l6.5-6.5l-6.2-6.2l17.8-17.8v149.1h-32.8c-16-10.6-34.8-16.2-54-16c-19.2,0.2-37.9,6.2-53.7,17.2v-1.2h-8.6
		L107.4,176.6z"/>
	<path class="st0" d="M163.5,170.4h39.8c1.2,0,2.4-0.5,3.2-1.3c0.9-0.9,1.3-2,1.3-3.2v-39.8c0-1.9-1.1-3.5-2.8-4.2
		c-1.7-0.7-3.7-0.3-5,1l-39.8,39.8c-1.3,1.3-1.7,3.3-1,5C159.9,169.3,161.6,170.4,163.5,170.4z M198.6,137.2v24.1h-24.1L198.6,137.2
		z"/>
</g>
</svg>
